<svg version="1.2" preserveAspectRatio="xMidYMid meet" viewBox="144.9646875 393.63366333678 524.475 224.77499333999998" zoomAndPan="magnify" xmlns:xlink="http://www.w3.org/1999/xlink" xmlns="http://www.w3.org/2000/svg" style="max-height: 500px" width="524.475" height="224.77499333999998"><defs><clipPath id="c269a64af2"><path d="M 0.199219 0 L 809.800781 0 L 809.800781 1012 L 0.199219 1012 Z M 0.199219 0"/></clipPath><clipPath id="f3bd316ec5"><path d="M 364.210938 411.007812 L 588.351562 411.007812 L 588.351562 520.453125 L 364.210938 520.453125 Z M 364.210938 411.007812"/></clipPath><clipPath id="d2c3029841"><path d="M 601.242188 485.671875 L 633.476562 485.671875 L 633.476562 517.90625 L 601.242188 517.90625 Z M 601.242188 485.671875"/></clipPath></defs><g id="da8bc85e76"><g clip-path="url(#c269a64af2)" clip-rule="nonzero"><path d="M 0.199219 0 L 809.800781 0 L 809.800781 1012 L 0.199219 1012 Z M 0.199219 0" style="stroke:none;fill-rule:nonzero;fill:#ffffff;fill-opacity:1;"/><path d="M 0.199219 0 L 809.800781 0 L 809.800781 1012 L 0.199219 1012 Z M 0.199219 0" style="stroke:none;fill-rule:nonzero;fill:#f6e5c3;fill-opacity:1;"/></g><g style="fill:#2d251a;fill-opacity:1;"><g transform="translate(172.502927, 596.160614)"><path d="M 49.859375 -67.453125 L 49.859375 -54.28125 L 22.390625 -54.28125 L 22.390625 -40.0625 L 42.953125 -40.0625 L 42.953125 -27.28125 L 22.390625 -27.28125 L 22.390625 0 L 5.953125 0 L 5.953125 -67.453125 Z M 49.859375 -67.453125" style="stroke:none"/></g></g><g style="fill:#2d251a;fill-opacity:1;"><g transform="translate(225.054725, 596.160614)"><path d="M 37.859375 0.671875 C 31.515625 0.671875 25.695312 -0.800781 20.40625 -3.75 C 15.125 -6.695312 10.929688 -10.8125 7.828125 -16.09375 C 4.722656 -21.375 3.171875 -27.316406 3.171875 -33.921875 C 3.171875 -40.515625 4.722656 -46.4375 7.828125 -51.6875 C 10.929688 -56.9375 15.125 -61.035156 20.40625 -63.984375 C 25.695312 -66.929688 31.515625 -68.40625 37.859375 -68.40625 C 44.191406 -68.40625 50 -66.929688 55.28125 -63.984375 C 60.570312 -61.035156 64.738281 -56.9375 67.78125 -51.6875 C 70.820312 -46.4375 72.34375 -40.515625 72.34375 -33.921875 C 72.34375 -27.316406 70.804688 -21.375 67.734375 -16.09375 C 64.660156 -10.8125 60.492188 -6.695312 55.234375 -3.75 C 49.984375 -0.800781 44.191406 0.671875 37.859375 0.671875 Z M 37.859375 -14.3125 C 43.234375 -14.3125 47.535156 -16.101562 50.765625 -19.6875 C 54.003906 -23.28125 55.625 -28.023438 55.625 -33.921875 C 55.625 -39.867188 54.003906 -44.617188 50.765625 -48.171875 C 47.535156 -51.734375 43.234375 -53.515625 37.859375 -53.515625 C 32.410156 -53.515625 28.066406 -51.753906 24.828125 -48.234375 C 21.597656 -44.710938 19.984375 -39.941406 19.984375 -33.921875 C 19.984375 -27.960938 21.597656 -23.203125 24.828125 -19.640625 C 28.066406 -16.085938 32.410156 -14.3125 37.859375 -14.3125 Z M 37.859375 -14.3125" style="stroke:none"/></g></g><g style="fill:#2d251a;fill-opacity:1;"><g transform="translate(300.567925, 596.160614)"><path d="M 22.09375 -67.453125 L 22.09375 -27.09375 C 22.09375 -23.0625 23.085938 -19.953125 25.078125 -17.765625 C 27.066406 -15.585938 29.976562 -14.5 33.8125 -14.5 C 37.65625 -14.5 40.601562 -15.585938 42.65625 -17.765625 C 44.707031 -19.953125 45.734375 -23.0625 45.734375 -27.09375 L 45.734375 -67.453125 L 62.15625 -67.453125 L 62.15625 -27.1875 C 62.15625 -21.164062 60.875 -16.070312 58.3125 -11.90625 C 55.75 -7.75 52.304688 -4.613281 47.984375 -2.5 C 43.660156 -0.382812 38.84375 0.671875 33.53125 0.671875 C 28.21875 0.671875 23.460938 -0.367188 19.265625 -2.453125 C 15.066406 -4.535156 11.75 -7.671875 9.3125 -11.859375 C 6.882812 -16.054688 5.671875 -21.164062 5.671875 -27.1875 L 5.671875 -67.453125 Z M 22.09375 -67.453125" style="stroke:none"/></g></g><g style="fill:#2d251a;fill-opacity:1;"><g transform="translate(368.299226, 596.160614)"><path d="M 66.296875 0 L 49.859375 0 L 22.390625 -41.609375 L 22.390625 0 L 5.953125 0 L 5.953125 -67.453125 L 22.390625 -67.453125 L 49.859375 -25.65625 L 49.859375 -67.453125 L 66.296875 -67.453125 Z M 66.296875 0" style="stroke:none"/></g></g><g style="fill:#2d251a;fill-opacity:1;"><g transform="translate(440.545958, 596.160614)"><path d="M 31.21875 -67.453125 C 38.332031 -67.453125 44.546875 -66.039062 49.859375 -63.21875 C 55.179688 -60.394531 59.296875 -56.4375 62.203125 -51.34375 C 65.117188 -46.257812 66.578125 -40.382812 66.578125 -33.71875 C 66.578125 -27.125 65.117188 -21.265625 62.203125 -16.140625 C 59.296875 -11.015625 55.164062 -7.039062 49.8125 -4.21875 C 44.46875 -1.40625 38.269531 0 31.21875 0 L 5.953125 0 L 5.953125 -67.453125 Z M 30.171875 -14.21875 C 36.378906 -14.21875 41.210938 -15.914062 44.671875 -19.3125 C 48.128906 -22.707031 49.859375 -27.507812 49.859375 -33.71875 C 49.859375 -39.9375 48.128906 -44.773438 44.671875 -48.234375 C 41.210938 -51.691406 36.378906 -53.421875 30.171875 -53.421875 L 22.390625 -53.421875 L 22.390625 -14.21875 Z M 30.171875 -14.21875" style="stroke:none"/></g></g><g style="fill:#2d251a;fill-opacity:1;"><g transform="translate(510.390825, 596.160614)"><path d="M 40.359375 0 L 26.328125 -25.453125 L 22.390625 -25.453125 L 22.390625 0 L 5.953125 0 L 5.953125 -67.453125 L 33.53125 -67.453125 C 38.84375 -67.453125 43.375 -66.519531 47.125 -64.65625 C 50.875 -62.800781 53.675781 -60.253906 55.53125 -57.015625 C 57.382812 -53.785156 58.3125 -50.1875 58.3125 -46.21875 C 58.3125 -41.726562 57.046875 -37.722656 54.515625 -34.203125 C 51.992188 -30.679688 48.265625 -28.179688 43.328125 -26.703125 L 58.890625 0 Z M 22.390625 -37.09375 L 32.578125 -37.09375 C 35.585938 -37.09375 37.84375 -37.828125 39.34375 -39.296875 C 40.851562 -40.765625 41.609375 -42.847656 41.609375 -45.546875 C 41.609375 -48.109375 40.851562 -50.125 39.34375 -51.59375 C 37.84375 -53.0625 35.585938 -53.796875 32.578125 -53.796875 L 22.390625 -53.796875 Z M 22.390625 -37.09375" style="stroke:none"/></g></g><g style="fill:#2d251a;fill-opacity:1;"><g transform="translate(573.030281, 596.160614)"><path d="M 63.796875 -67.453125 L 40.453125 -22.296875 L 40.453125 0 L 24.015625 0 L 24.015625 -22.296875 L 0.671875 -67.453125 L 19.3125 -67.453125 L 32.375 -39.203125 L 45.34375 -67.453125 Z M 63.796875 -67.453125" style="stroke:none"/></g></g><g clip-path="url(#f3bd316ec5)" clip-rule="nonzero"><path d="M 580.984375 434.722656 L 567.386719 419.355469 L 549.636719 411.027344 L 402.945312 411.027344 L 385.171875 419.355469 L 371.578125 434.722656 L 364.210938 454.808594 L 364.210938 476.539062 L 371.578125 496.625 L 385.171875 511.992188 L 402.945312 520.320312 L 549.636719 520.320312 L 567.386719 511.992188 L 580.984375 496.625 L 588.351562 476.539062 L 588.351562 454.808594 Z M 580.984375 434.722656" style="stroke:none;fill-rule:nonzero;fill:#cf5525;fill-opacity:1;"/></g><path d="M 619.164062 498.417969 C 619.164062 497.882812 619.042969 497.429688 618.800781 497.0625 C 618.558594 496.691406 618.160156 496.433594 617.605469 496.28125 C 617.4375 496.238281 617.25 496.207031 617.035156 496.179688 C 616.820312 496.15625 616.523438 496.144531 616.148438 496.144531 L 614.664062 496.144531 L 614.664062 500.757812 L 616.347656 500.757812 C 616.816406 500.757812 617.230469 500.703125 617.582031 500.589844 C 617.933594 500.476562 618.226562 500.316406 618.460938 500.109375 C 618.695312 499.90625 618.871094 499.660156 618.988281 499.375 C 619.105469 499.089844 619.164062 498.773438 619.164062 498.417969 Z M 623.429688 509.460938 C 623.429688 509.554688 623.414062 509.632812 623.378906 509.695312 C 623.34375 509.757812 623.265625 509.808594 623.140625 509.851562 C 623.015625 509.894531 622.828125 509.921875 622.585938 509.941406 C 622.34375 509.957031 622.011719 509.964844 621.59375 509.964844 C 621.242188 509.964844 620.960938 509.957031 620.75 509.941406 C 620.539062 509.921875 620.375 509.890625 620.253906 509.84375 C 620.132812 509.800781 620.046875 509.742188 619.996094 509.667969 C 619.945312 509.597656 619.902344 509.511719 619.871094 509.410156 L 618.410156 505.777344 C 618.234375 505.367188 618.0625 505 617.894531 504.683594 C 617.726562 504.363281 617.542969 504.097656 617.335938 503.882812 C 617.128906 503.671875 616.894531 503.507812 616.625 503.398438 C 616.355469 503.289062 616.046875 503.238281 615.695312 503.238281 L 614.664062 503.238281 L 614.664062 509.4375 C 614.664062 509.519531 614.636719 509.59375 614.582031 509.664062 C 614.527344 509.730469 614.4375 509.785156 614.3125 509.828125 C 614.1875 509.867188 614.019531 509.902344 613.808594 509.925781 C 613.597656 509.953125 613.332031 509.964844 613.003906 509.964844 C 612.683594 509.964844 612.417969 509.953125 612.203125 509.925781 C 611.992188 509.902344 611.820312 509.867188 611.695312 509.828125 C 611.570312 509.785156 611.480469 509.730469 611.429688 509.664062 C 611.382812 509.59375 611.355469 509.519531 611.355469 509.4375 L 611.355469 494.660156 C 611.355469 494.289062 611.449219 494.023438 611.640625 493.859375 C 611.828125 493.695312 612.058594 493.617188 612.335938 493.617188 L 616.550781 493.617188 C 616.976562 493.617188 617.328125 493.625 617.605469 493.640625 C 617.882812 493.65625 618.132812 493.679688 618.359375 493.703125 C 619.015625 493.796875 619.605469 493.953125 620.128906 494.179688 C 620.652344 494.40625 621.097656 494.703125 621.460938 495.066406 C 621.824219 495.433594 622.105469 495.863281 622.296875 496.363281 C 622.488281 496.863281 622.585938 497.433594 622.585938 498.082031 C 622.585938 498.625 622.515625 499.121094 622.378906 499.570312 C 622.242188 500.019531 622.039062 500.417969 621.769531 500.769531 C 621.5 501.125 621.167969 501.429688 620.777344 501.691406 C 620.382812 501.949219 619.933594 502.160156 619.429688 502.316406 C 619.671875 502.4375 619.902344 502.578125 620.117188 502.746094 C 620.328125 502.914062 620.53125 503.117188 620.71875 503.355469 C 620.90625 503.59375 621.085938 503.867188 621.253906 504.171875 C 621.421875 504.480469 621.585938 504.824219 621.742188 505.210938 L 623.113281 508.417969 C 623.242188 508.738281 623.324219 508.96875 623.367188 509.117188 C 623.410156 509.261719 623.429688 509.378906 623.429688 509.460938" style="stroke:none;fill-rule:nonzero;fill:#2d251a;fill-opacity:1;"/><g clip-path="url(#d2c3029841)" clip-rule="nonzero"><path d="M 631.769531 501.789062 C 631.769531 509.734375 625.304688 516.199219 617.359375 516.199219 C 609.414062 516.199219 602.949219 509.734375 602.949219 501.789062 C 602.949219 493.84375 609.414062 487.382812 617.359375 487.382812 C 625.304688 487.382812 631.769531 493.84375 631.769531 501.789062 Z M 632.210938 495.515625 C 631.398438 493.597656 630.234375 491.875 628.757812 490.394531 C 627.277344 488.914062 625.554688 487.75 623.632812 486.941406 C 621.644531 486.097656 619.535156 485.671875 617.359375 485.671875 C 615.183594 485.671875 613.074219 486.097656 611.085938 486.941406 C 609.167969 487.75 607.441406 488.914062 605.960938 490.394531 C 604.484375 491.875 603.320312 493.597656 602.507812 495.515625 C 601.667969 497.503906 601.242188 499.613281 601.242188 501.789062 C 601.242188 503.964844 601.667969 506.074219 602.507812 508.0625 C 603.320312 509.984375 604.484375 511.707031 605.960938 513.1875 C 607.441406 514.667969 609.167969 515.828125 611.085938 516.640625 C 613.074219 517.480469 615.183594 517.90625 617.359375 517.90625 C 619.535156 517.90625 621.644531 517.480469 623.632812 516.640625 C 625.550781 515.828125 627.277344 514.667969 628.757812 513.1875 C 630.234375 511.707031 631.398438 509.984375 632.210938 508.0625 C 633.050781 506.074219 633.476562 503.964844 633.476562 501.789062 C 633.476562 499.613281 633.050781 497.503906 632.210938 495.515625" style="stroke:none;fill-rule:nonzero;fill:#2d251a;fill-opacity:1;"/></g><g style="fill:#2d251a;fill-opacity:1;"><g transform="translate(172.507744, 499.313507)"><path d="M 54.46875 -67.453125 L 54.46875 -54.28125 L 36.609375 -54.28125 L 36.609375 0 L 20.171875 0 L 20.171875 -54.28125 L 2.3125 -54.28125 L 2.3125 -67.453125 Z M 54.46875 -67.453125" style="stroke:none"/></g></g><g style="fill:#2d251a;fill-opacity:1;"><g transform="translate(229.284935, 499.313507)"><path d="M 64.375 -67.453125 L 64.375 0 L 47.9375 0 L 47.9375 -27.765625 L 22.390625 -27.765625 L 22.390625 0 L 5.953125 0 L 5.953125 -67.453125 L 22.390625 -67.453125 L 22.390625 -41.03125 L 47.9375 -41.03125 L 47.9375 -67.453125 Z M 64.375 -67.453125" style="stroke:none"/></g></g><g style="fill:#2d251a;fill-opacity:1;"><g transform="translate(299.511882, 499.313507)"><path d="M 22.390625 -54.28125 L 22.390625 -40.640625 L 44.390625 -40.640625 L 44.390625 -27.953125 L 22.390625 -27.953125 L 22.390625 -13.15625 L 47.265625 -13.15625 L 47.265625 0 L 5.953125 0 L 5.953125 -67.453125 L 47.265625 -67.453125 L 47.265625 -54.28125 Z M 22.390625 -54.28125" style="stroke:none"/></g></g><g style="fill:#f6e5c3;fill-opacity:1;"><g transform="translate(410.987642, 497.814248)"><path d="M 47.75 -12.78125 L 21.046875 -12.78125 L 16.625 0 L 2.5 0 L 26.609375 -67.15625 L 42.28125 -67.15625 L 66.390625 0 L 52.171875 0 Z M 44.09375 -23.546875 L 34.390625 -51.59375 L 24.6875 -23.546875 Z M 44.09375 -23.546875" style="stroke:none"/></g></g><g style="fill:#f6e5c3;fill-opacity:1;"><g transform="translate(479.773539, 497.814248)"><path d="M 30.078125 -67.0625 C 37.117188 -67.0625 43.3125 -65.679688 48.65625 -62.921875 C 54.007812 -60.171875 58.140625 -56.25 61.046875 -51.15625 C 63.960938 -46.0625 65.421875 -40.15625 65.421875 -33.4375 C 65.421875 -26.707031 63.960938 -20.828125 61.046875 -15.796875 C 58.140625 -10.773438 54.007812 -6.882812 48.65625 -4.125 C 43.3125 -1.375 37.117188 0 30.078125 0 L 6.625 0 L 6.625 -67.0625 Z M 29.59375 -11.4375 C 36.632812 -11.4375 42.078125 -13.359375 45.921875 -17.203125 C 49.765625 -21.046875 51.6875 -26.457031 51.6875 -33.4375 C 51.6875 -40.414062 49.765625 -45.875 45.921875 -49.8125 C 42.078125 -53.75 36.632812 -55.71875 29.59375 -55.71875 L 20.078125 -55.71875 L 20.078125 -11.4375 Z M 29.59375 -11.4375" style="stroke:none"/></g></g></g></svg>